<?xml version="1.0" encoding="iso-8859-1"?>
<!-- Uploaded to: SVG Repo, www.svgrepo.com, Generator: SVG Repo Mixer Tools -->
<svg fill="#000000" height="800px" width="800px" version="1.1" id="Layer_1" xmlns="http://www.w3.org/2000/svg" xmlns:xlink="http://www.w3.org/1999/xlink" 
	 viewBox="0 0 512 512" xml:space="preserve">
<g>
	<g>
		<path d="M503.983,195.608c4.428,0,8.017-3.588,8.017-8.017v-25.653c0-42.141-34.285-76.426-76.426-76.426h-60.392V50.238h60.392
			c4.428,0,8.017-3.588,8.017-8.017V8.017c0-4.428-3.588-8.017-8.017-8.017h-68.409c-4.428,0-8.017,3.588-8.017,8.017v77.495
			H144.835c-42.141,0-76.426,34.285-76.426,76.426v0.534H8.017c-4.354,0-8.017,3.662-8.017,8.017v171.023
			c0,4.428,3.589,8.017,8.017,8.017h57.555l-31.013,100.79c-1.56,5.073,2.359,10.375,7.663,10.375h163.006v43.29
			c0,4.428,3.589,8.017,8.017,8.017h136.818c4.428,0,8.017-3.588,8.017-8.017V349.528h145.904c4.428,0,8.017-3.588,8.017-8.017
			V221.795c0-4.428-3.588-8.017-8.017-8.017c-4.428,0-8.017,3.588-8.017,8.017v111.699H255.466V161.937
			c0-24.54-11.639-46.4-29.672-60.393h133.355v36.046c-19.459,3.757-34.205,20.909-34.205,41.448
			c0,23.281,18.941,42.221,42.221,42.221c23.281,0,42.221-18.941,42.221-42.221c0-20.54-14.745-37.691-34.205-41.448v-36.046h60.392
			c33.3,0,60.393,27.092,60.393,60.393v25.653C495.967,192.019,499.555,195.608,503.983,195.608z M375.182,16.033h52.376v18.171
			h-52.376V16.033z M239.432,178.505v2.142c-0.599,0.27-1.176,0.61-1.711,1.04l-101.437,81.149L30.871,178.505H239.432z
			 M16.033,333.495V187.168l115.243,92.194c2.893,2.315,7.122,2.315,10.016,0l98.14-78.511v132.644H76.426H16.033z M207.324,444.66
			H53.076l29.271-95.132h154.248L207.324,444.66z M299.29,349.528v44.003c0,4.428,3.588,8.017,8.017,8.017
			c4.428,0,8.017-3.588,8.017-8.017v-44.003h26.722v146.438h-26.722V426.31c0-4.428-3.588-8.017-8.017-8.017
			c-4.428,0-8.017,3.588-8.017,8.017v69.683c-0.177-0.012-0.354-0.027-0.534-0.027h-77.495v-39.549c0-0.63-0.08-1.24-0.217-1.828
			l32.327-105.062H299.29z M239.432,161.937v0.534H84.443v-0.534c0-33.3,27.092-60.393,60.393-60.393h34.205
			C212.34,101.545,239.432,128.637,239.432,161.937z M393.353,179.04c0,14.441-11.747,26.188-26.188,26.188
			c-14.441,0-26.188-11.747-26.188-26.188c0-11.645,7.641-21.534,18.171-24.928v24.928c0,4.428,3.588,8.017,8.017,8.017
			c4.428,0,8.017-3.588,8.017-8.017v-24.928C385.711,157.506,393.353,167.395,393.353,179.04z"/>
	</g>
</g>
<g>
	<g>
		<path d="M427.023,299.29H315.858c-4.428,0-8.017,3.588-8.017,8.017c0,4.428,3.588,8.017,8.017,8.017h111.165
			c4.428,0,8.017-3.588,8.017-8.017C435.04,302.878,431.451,299.29,427.023,299.29z"/>
	</g>
</g>
<g>
	<g>
		<path d="M469.779,299.29h-17.102c-4.428,0-8.017,3.588-8.017,8.017c0,4.428,3.588,8.017,8.017,8.017h17.102
			c4.428,0,8.017-3.588,8.017-8.017C477.795,302.878,474.207,299.29,469.779,299.29z"/>
	</g>
</g>
</svg>